<svg xmlns="http://www.w3.org/2000/svg" viewBox="0 0 60.177 60.177"><defs><style>.a{fill:#fff;}</style></defs><path class="a" d="M30.088,0c-8.174,0-9.195.038-12.4.181a22.187,22.187,0,0,0-7.3,1.4A14.735,14.735,0,0,0,5.05,5.05a14.681,14.681,0,0,0-3.47,5.331,22.122,22.122,0,0,0-1.4,7.3C.03,20.894,0,21.914,0,30.088s.038,9.195.181,12.4a22.2,22.2,0,0,0,1.4,7.3,14.756,14.756,0,0,0,3.47,5.331,14.714,14.714,0,0,0,5.331,3.47,22.214,22.214,0,0,0,7.3,1.4c3.209.15,4.23.181,12.4.181s9.195-.038,12.4-.181a22.266,22.266,0,0,0,7.3-1.4,15.377,15.377,0,0,0,8.8-8.8,22.2,22.2,0,0,0,1.4-7.3c.15-3.209.181-4.23.181-12.4s-.038-9.195-.181-12.4a22.252,22.252,0,0,0-1.4-7.3,14.768,14.768,0,0,0-3.47-5.331A14.66,14.66,0,0,0,49.8,1.58a22.135,22.135,0,0,0-7.3-1.4C39.283.03,38.262,0,30.088,0Zm0,5.416c8.031,0,8.989.04,12.161.178a16.577,16.577,0,0,1,5.584,1.041,9.9,9.9,0,0,1,5.712,5.709,16.613,16.613,0,0,1,1.036,5.584c.143,3.174.176,4.127.176,12.161s-.038,8.989-.186,12.161a16.933,16.933,0,0,1-1.056,5.584A9.554,9.554,0,0,1,51.261,51.3a9.387,9.387,0,0,1-3.46,2.247,16.735,16.735,0,0,1-5.6,1.036c-3.194.143-4.135.176-12.183.176s-8.991-.038-12.183-.186a17.061,17.061,0,0,1-5.606-1.056,9.318,9.318,0,0,1-3.458-2.254A9.136,9.136,0,0,1,6.509,47.8a17.076,17.076,0,0,1-1.053-5.6C5.343,39.037,5.3,38.062,5.3,30.051s.04-8.991.153-12.188a17.056,17.056,0,0,1,1.053-5.6A8.919,8.919,0,0,1,8.766,8.8a8.9,8.9,0,0,1,3.458-2.252,16.653,16.653,0,0,1,5.569-1.056c3.2-.113,4.137-.15,12.183-.15l.113.075Zm0,9.222a15.45,15.45,0,1,0,15.45,15.45,15.449,15.449,0,0,0-15.45-15.45Zm0,25.48A10.029,10.029,0,1,1,40.118,30.088,10.027,10.027,0,0,1,30.088,40.118ZM49.761,14.029a3.611,3.611,0,1,1-3.611-3.608A3.613,3.613,0,0,1,49.761,14.029Z" transform="translate(0 0)"/></svg>